<svg xmlns="http://www.w3.org/2000/svg" width="512" height="512" id="business-care">
  <path fill="#485EFF" d="M90.649 305.838S19.287 319 19.287 450.075V300.187l71.362 5.651zm117.077 123.278s61.302-26.892 154.259-26.892H215.5s-16.548 8.508-7.774 26.892zM359.276 161.669a4.985 4.985 0 0 1-2.086-.458 162.124 162.124 0 0 0-28.771-10.08 5 5 0 0 1 2.399-9.708 172.185 172.185 0 0 1 30.55 10.703 5 5 0 0 1-2.092 9.543zm102.232 189.846a5 5 0 0 1-4.967-5.625 185.973 185.973 0 0 0 1.436-23.108c0-43.614-15.328-85.479-43.161-117.883a5 5 0 0 1 7.586-6.516c29.39 34.216 45.575 78.396 45.575 124.398 0 8.176-.51 16.37-1.514 24.356a5.001 5.001 0 0 1-4.955 4.378z" opacity=".3"></path>
  <path fill="#859EF9" d="M359.279 274.078V110.972h59.33v263.015l-41.312 23.096 7.638-19.131c.435-26.548-25.656-22.043-25.656-22.043v-81.831z"></path>
  <path fill="#5C77FF" d="M329.618 94.923V355.85h-59.329V14.286h59.329v32.936"></path>
  <path fill="#485EFF" d="m115.965 324.774-.08-.001a5 5 0 0 1-4.921-5.077c.644-41.292 13.944-80.207 38.463-112.54 23.825-31.418 57.263-54.344 94.152-64.553a5 5 0 0 1 2.667 9.637c-72.539 20.076-124.057 89-125.283 167.611a5 5 0 0 1-4.998 4.923zM240.619 244.525V355.85h-9.366l-49.964-24.083v-87.242z" opacity=".3"></path>
  <circle cx="63.507" cy="422.223" r="11.107" fill="#5C77FF"></circle>
  <path fill="#354B87" d="M498.727 349.525c-8.906-16.028-25.355-14.641-32.807-11.67a4.956 4.956 0 0 0-.845.434l-49.159 31.486-.005.002-27.636 17.704c1.097-2.831 1.659-6.009 1.659-9.529 0-18.497-15.671-26.093-30.336-27.033h-.005c-1.124-.071-1.778-.072-1.78-.068H232.395l-48.925-23.582-1.012-.49c-16.33-10.484-42.802-11.94-43.927-11.997a4.273 4.273 0 0 0-.253-.007h-37.629v-13.937a5 5 0 0 0-5-5H14.287a5 5 0 0 0-5 5v154.237a5 5 0 0 0 5 5h81.362a5 5 0 0 0 5-5v-12.578h24.107l142.962 57.184c.072.028.146.056.219.081.604.209 8.783 2.97 19.686 2.97 8.811 0 19.4-1.804 29.202-8.215 13.062-8.535 85.551-54.113 127.599-80.521a72208.435 72208.435 0 0 1 50.674-31.807c.332-.208.638-.454.912-.734 4.523-4.61 10.912-17.215 2.717-31.93zm-9.534 24.563a79672.194 79672.194 0 0 0-50.088 31.438c-51.396 32.28-115.279 72.471-127.752 80.62-17.207 11.256-38.564 4.676-40.057 4.194l-143.72-57.486a5.006 5.006 0 0 0-1.857-.357h-25.07V397.22a5 5 0 1 0-10 0V450.075H19.287V305.838h71.362V351.476a5 5 0 1 0 10 0v-26.701h37.489c1.852.11 25.547 1.688 39.128 10.555.177.116.361.22.552.313l51.263 24.713a5.004 5.004 0 0 0 2.171.496h126.549c.067 0 .481.006 1.153.049h.003c6.308.404 20.977 2.875 20.977 17.053 0 4.385-1.212 7.634-3.704 9.935-5.407 4.989-15.429 4.344-16.552 4.251h-.018l-.014-.002-.063-.003a5.071 5.071 0 0 0-.707-.05H234.82c-.376.001-9.303.085-18.276 4.577-8.584 4.297-18.817 13.417-18.817 32.456a5 5 0 1 0 10 0c0-11.068 4.38-18.933 13.019-23.374 6.892-3.544 14.056-3.658 14.093-3.659h123.768c.077.008.169.015.266.022l.007.001c.72.058 1.79.118 3.107.118 2.708 0 6.461-.263 10.354-1.326.068.776.298 1.549.748 2.251a4.996 4.996 0 0 0 6.907 1.513l41.308-26.463.003-.001 48.7-31.191c2.563-.879 13.713-3.904 19.982 7.38 5.869 10.538.718 17.89-.796 19.699z"></path>
</svg>
