<svg xmlns="http://www.w3.org/2000/svg" id="focus" enable-background="new 0 0 64 64" viewBox="0 0 64 64">
  <path fill="#2b2e63" d="M51.13,6.17c-0.28-0.18-0.63-0.21-0.93-0.07L44.9,8.52c-0.48-0.71-1.12-1.31-1.86-1.76l2.45-5.38
		c0.14-0.3,0.12-0.65-0.06-0.93S44.94,0,44.6,0H19.4c-0.33,0-0.64,0.17-0.82,0.45c-0.18,0.28-0.2,0.63-0.07,0.93l2.45,5.38
		c-0.73,0.45-1.37,1.05-1.85,1.76L13.8,6.1c-0.31-0.14-0.66-0.11-0.94,0.07c-0.27,0.18-0.44,0.49-0.44,0.82v25.2
		c0,0.34,0.17,0.65,0.44,0.82c0.17,0.11,0.35,0.16,0.53,0.16c0.14,0,0.28-0.03,0.41-0.09l5.31-2.42c0.48,0.72,1.12,1.31,1.85,1.76
		L18.5,37.8c-0.13,0.3-0.11,0.65,0.07,0.93c0.18,0.28,0.49,0.45,0.82,0.45h8.59c-0.65,0.84-1.05,1.88-1.05,3.02
		c0,2.19,1.43,4.03,3.4,4.69L18.17,62.82L19.73,64l11.21-14.68V64h1.95V49.08L44.28,64l1.55-1.18L33.63,46.85
		c1.89-0.71,3.25-2.52,3.25-4.65c0-1.14-0.41-2.18-1.06-3.02h8.78c0.33,0,0.64-0.17,0.82-0.45s0.2-0.63,0.06-0.93l-2.45-5.38
		c0.74-0.45,1.38-1.04,1.86-1.76l5.31,2.42c0.13,0.06,0.27,0.09,0.41,0.09c0.18,0,0.36-0.05,0.52-0.16
		c0.28-0.17,0.45-0.48,0.45-0.82V6.99C51.58,6.66,51.42,6.35,51.13,6.17z M18.3,28.89l-3.93,1.79V8.51l3.93,1.79
		c-0.13,0.49-0.21,1.01-0.21,1.54v15.51C18.08,27.88,18.17,28.39,18.3,28.89z M20.92,1.96h22.17l-1.86,4.08
		c-0.4-0.09-0.83-0.14-1.26-0.14H24.03c-0.44,0-0.86,0.05-1.26,0.14L20.92,1.96z M31.91,45.22c-1.66,0-3.02-1.36-3.02-3.02
		c0-1.67,1.36-3.02,3.02-3.02c1.67,0,3.02,1.35,3.02,3.02C34.92,43.86,33.58,45.22,31.91,45.22z M43.08,37.23H20.92l1.86-4.08
		c0.4,0.09,0.82,0.14,1.26,0.14h15.93c0.43,0,0.86-0.05,1.26-0.14L43.08,37.23z M43.96,27.35c0,2.2-1.79,3.99-3.99,3.99H24.03
		c-2.2,0-3.99-1.79-3.99-3.99V11.84c0-2.2,1.79-3.99,3.99-3.99h15.93c2.2,0,3.99,1.79,3.99,3.99V27.35z M49.63,30.68l-3.94-1.79
		c0.14-0.5,0.21-1.01,0.21-1.54V11.84c0-0.53-0.07-1.05-0.21-1.54l3.94-1.79V30.68z"></path>
  <circle cx="31.91" cy="42.2" r="3.02" fill="#d7e9f2"></circle>
  <path fill="#ededed" d="M39.97,7.85H24.03c-2.2,0-3.99,1.79-3.99,3.99v15.51c0,2.2,1.79,3.99,3.99,3.99h15.93
		c2.2,0,3.99-1.79,3.99-3.99V11.84C43.96,9.64,42.17,7.85,39.97,7.85z M32,27.81c-4.53,0-8.22-3.68-8.22-8.22
		c0-4.53,3.69-8.22,8.22-8.22c4.54,0,8.23,3.69,8.23,8.22C40.22,24.13,36.53,27.81,32,27.81z"></path>
  <path fill="#ffdc7c" d="M43.08 37.23H20.92l1.86-4.08c.4.09.82.14 1.26.14h15.93c.43 0 .86-.05 1.26-.14L43.08 37.23zM18.08 27.35c0 .53.08 1.04.21 1.54l-3.93 1.79V8.51l3.93 1.79c-.13.49-.21 1.01-.21 1.54V27.35zM43.08 1.96l-1.86 4.08c-.4-.09-.83-.14-1.26-.14H24.03c-.44 0-.86.05-1.26.14l-1.86-4.08H43.08zM49.63 8.51v22.17l-3.94-1.79c.14-.5.21-1.01.21-1.54V11.84c0-.53-.07-1.05-.21-1.54L49.63 8.51z"></path>
  <path fill="#2b2e63" d="M32,11.37c-4.53,0-8.22,3.69-8.22,8.22c0,4.54,3.69,8.22,8.22,8.22c4.54,0,8.23-3.68,8.23-8.22
		C40.22,15.06,36.53,11.37,32,11.37z M32,25.86c-3.45,0-6.27-2.81-6.27-6.27c0-3.45,2.82-6.27,6.27-6.27c3.46,0,6.27,2.82,6.27,6.27
		C38.26,23.05,35.46,25.86,32,25.86z"></path>
  <circle cx="32" cy="19.59" r="6.27" fill="#a0d3f2"></circle>
</svg>
