<svg xmlns="http://www.w3.org/2000/svg" viewBox="0 0 32 32" id="Focus">
  <path d="m16,26.5c7.9155273,0,14.1616211-9.8164062,14.4238281-10.234375.1015625-.1625977.1015625-.3686523,0-.53125-.262207-.4179688-6.5083008-10.234375-14.4238281-10.234375-1.4555664,0-2.9604492.3408203-4.4731445,1.0131836-.2524414.1123047-.3657227.4077148-.2539062.6601562.112793.2524414.4086914.3671875.6601562.2539062,1.3837891-.6152344,2.7524414-.9272461,4.0668945-.9272461,4.1121826,0,7.8435059,3.0166016,10.3505859,5.6970215-2.4333496-1.7114258-5.7871704-3.4368286-9.5661011-3.6553345-.2579346-.0269165-.5195312-.041687-.7844849-.041687s-.5265503.0147705-.7844849.041687c-3.7870483.2189941-7.1469116,1.9512329-9.5814819,3.6662598.8643799-.927063,1.8693848-1.8934937,2.9919434-2.7626343.2182617-.1694336.2583008-.4833984.0893555-.7016602-.1689453-.21875-.4829102-.2583008-.7016602-.0893555-3.8359375,2.9707031-6.3330078,6.9135742-6.4370117,7.0800781-.1020508.1621094-.1020508.3686523-.0004883.53125.262207.4179688,6.5083008,10.234375,14.4238281,10.234375Zm0-1c-4.1121826,0-7.8435059-3.0166016-10.3505859-5.6970215,2.4333496,1.7114258,5.7871704,3.4368286,9.5661011,3.6553345.2579346.0269165.5195312.041687.7844849.041687s.5265503-.0147705.7844849-.041687c3.7828979-.21875,7.1396484-1.9474487,9.5736084-3.6606445-2.5058594,2.6817627-6.2390747,5.7023315-10.3580933,5.7023315Zm-6.5-9.5c0-3.5839844,2.9160156-6.5,6.5-6.5s6.5,2.9160156,6.5,6.5-2.9160156,6.5-6.5,6.5-6.5-2.9160156-6.5-6.5Zm19.8081055,0c-.9784546.9904785-4.1217041,3.930481-8.2189941,5.4934692,1.4786377-1.3707275,2.4108887-3.3228149,2.4108887-5.4934692s-.932251-4.1227417-2.4108887-5.4934692c4.09729,1.5629883,7.2405396,4.5029907,8.2189941,5.4934692Zm-20.8081055,0c0,2.1706543.932251,4.1227417,2.4108887,5.4934692-4.09729-1.5629883-7.2405396-4.5029907-8.2189941-5.4934692.9784546-.9904785,4.1217041-3.930481,8.2189941-5.4934692-1.4786377,1.3707275-2.4108887,3.3228149-2.4108887,5.4934692Z" fill="#595bd4" class="color000000 svgShape"></path>
  <path d="M20.4494629 16.5h.5505371c.2763672 0 .5-.2236328.5-.5s-.2236328-.5-.5-.5h-.5505371c-.2337036-2.0775146-1.8719482-3.7157593-3.9494629-3.9494629v-.5505371c0-.2763672-.2236328-.5-.5-.5s-.5.2236328-.5.5v.5505371c-2.0775146.2337036-3.7157593 1.8719482-3.9494629 3.9494629h-.5505371c-.2763672 0-.5.2236328-.5.5s.2236328.5.5.5h.5505371c.2337036 2.0775146 1.8719482 3.7157593 3.9494629 3.9494629v.5505371c0 .2763672.2236328.5.5.5s.5-.2236328.5-.5v-.5505371c2.0775146-.2337036 3.7157593-1.8719482 3.9494629-3.9494629zm-3.9494629 2.9494629v-.4494629c0-.2763672-.2236328-.5-.5-.5s-.5.2236328-.5.5v.4494629c-1.5269165-.2213745-2.7280884-1.4225464-2.9494629-2.9494629h.4494629c.2763672 0 .5-.2236328.5-.5s-.2236328-.5-.5-.5h-.4494629c.2213745-1.5269165 1.4225464-2.7280884 2.9494629-2.9494629v.4494629c0 .2763672.2236328.5.5.5s.5-.2236328.5-.5v-.4494629c1.5269165.2213745 2.7280884 1.4225464 2.9494629 2.9494629h-.4494629c-.2763672 0-.5.2236328-.5.5s.2236328.5.5.5h.4494629c-.2213745 1.5269165-1.4225464 2.7280884-2.9494629 2.9494629zM4 25.5c-.2763672 0-.5.2236328-.5.5v2c0 .2763672.2236328.5.5.5h2c.2763672 0 .5-.2236328.5-.5s-.2236328-.5-.5-.5h-1.5v-1.5c0-.2763672-.2236328-.5-.5-.5zM27.5 26v1.5h-1.5c-.2763672 0-.5.2236328-.5.5s.2236328.5.5.5h2c.2763672 0 .5-.2236328.5-.5v-2c0-.2763672-.2236328-.5-.5-.5s-.5.2236328-.5.5zM26 4.5h1.5v1.5c0 .2763672.2236328.5.5.5s.5-.2236328.5-.5v-2c0-.2763672-.2236328-.5-.5-.5h-2c-.2763672 0-.5.2236328-.5.5s.2236328.5.5.5zM4 6.5c.2763672 0 .5-.2236328.5-.5v-1.5h1.5c.2763672 0 .5-.2236328.5-.5s-.2236328-.5-.5-.5h-2c-.2763672 0-.5.2236328-.5.5v2c0 .2763672.2236328.5.5.5z" fill="#595bd4" class="color000000 svgShape"></path>
  <circle cx="9.96" cy="7.906" r=".5" fill="#595bd4" class="color000000 svgShape"></circle>
</svg>
