<svg xmlns="http://www.w3.org/2000/svg" enable-background="new 0 0 512 512" viewBox="0 0 512 512" id="social-media-engagement">
  <g>
    <g>
      <g>
        <path fill="#fde3e2" d="M276.41,302.546c-0.003,20.498-16.638,37.122-37.141,37.118
				c-20.359-0.003-36.989-16.632-36.986-37.13c0.003-20.353,16.637-36.977,36.996-36.974
				C259.783,265.564,276.413,282.193,276.41,302.546z"></path>
      </g>
      <g>
        <path fill="#87828e" d="M301.914,433.514c-41.727,17.291-83.452,17.284-125.175-0.02
				c0.005-34.453,28.071-62.502,62.534-62.497C273.859,371.003,301.919,399.061,301.914,433.514z"></path>
      </g>
      <g>
        <path fill="#fde3e2" d="M376.223,388.321c-0.002,14.181-11.51,25.681-25.695,25.679
				c-14.085-0.002-25.589-11.507-25.587-25.687c0.002-14.081,11.51-25.582,25.595-25.579
				C364.72,362.736,376.225,374.24,376.223,388.321z"></path>
      </g>
      <g>
        <path fill="#5ac6b5" d="M393.867,478.927c-28.868,11.962-57.734,11.957-86.598-0.014
				c0.003-23.835,19.42-43.24,43.262-43.237C374.459,435.68,393.871,455.092,393.867,478.927z"></path>
      </g>
      <g>
        <path fill="#fde3e2" d="M153.74,388.321c-0.002,14.181-11.51,25.681-25.695,25.679
				c-14.085-0.002-25.589-11.507-25.587-25.687c0.002-14.081,11.51-25.582,25.595-25.579
				C142.237,362.736,153.742,374.24,153.74,388.321z"></path>
      </g>
      <g>
        <path fill="#f4d443" d="M171.384,478.927c-28.868,11.962-57.734,11.957-86.598-0.014
				c0.003-23.835,19.42-43.24,43.262-43.237C151.975,435.68,171.387,455.092,171.384,478.927z"></path>
      </g>
      <g>
        <path fill="#73cbfd" d="M464.685,157.156H323.05c-7.921,0-14.342,6.421-14.342,14.342v149.748l37.244-25.441h118.733
				c7.921,0,14.342-6.421,14.342-14.342V171.498C479.026,163.577,472.605,157.156,464.685,157.156z"></path>
      </g>
      <g>
        <path fill="#5ac6b5" d="M43.571,204.193h104.645c5.852,0,10.596,4.744,10.596,10.596v110.639l-27.517-18.797H43.571
				c-5.852,0-10.596-4.744-10.596-10.596l0-81.246C32.975,208.937,37.719,204.193,43.571,204.193z"></path>
      </g>
      <g>
        <path fill="#f55375" d="M94.395,24.104l140.645,0c7.865,0,14.241,6.376,14.241,14.241v148.702l-36.983-25.264H94.395
				c-7.865,0-14.241-6.376-14.241-14.241l0-109.197C80.153,30.48,86.529,24.104,94.395,24.104z"></path>
      </g>
      <g>
        <path fill="#f9f9f9" d="M201.844,78.528c0,24.287-37.103,46.49-37.103,46.49s-37.15-22.203-37.15-46.49
				c0-11.919,9.693-21.566,21.613-21.566c6.076,0,11.595,2.505,15.537,6.586c3.896-4.081,9.415-6.586,15.49-6.586
				C192.15,56.962,201.844,66.609,201.844,78.528z"></path>
      </g>
      <g>
        <line x1="358.424" x2="429.31" y1="200.455" y2="200.455" fill="#f9f9f9"></line>
      </g>
      <g>
        <path d="M239.281,344.303c-0.005,0-0.005,0-0.009,0c-22.954-0.005-41.628-18.742-41.628-41.768
				c0.005-22.945,18.678-41.61,41.628-41.61c0.005,0,0.005,0,0.009,0c23.031,0,41.768,18.674,41.768,41.623l0,0
				C281.045,325.575,262.307,344.303,239.281,344.303z M239.272,270.2c-17.836,0-32.348,14.503-32.352,32.334
				c0,17.913,14.512,32.488,32.352,32.493c0.005,0,0.005,0,0.009,0c17.913,0,32.488-14.57,32.493-32.479
				c0-17.836-14.575-32.348-32.493-32.348C239.281,270.2,239.276,270.2,239.272,270.2z M276.411,302.548h0.045H276.411z"></path>
      </g>
      <g>
        <path d="M239.344,451.065c-21.514,0-43.023-4.425-64.383-13.284c-1.735-0.72-2.862-2.41-2.862-4.285
				c0.009-37.022,30.142-67.137,67.164-67.137c0.005,0,0.005,0,0.009,0c17.963,0.005,34.857,6.998,47.57,19.698
				c12.714,12.691,19.716,29.549,19.711,47.457c0,1.875-1.128,3.569-2.862,4.285C282.34,446.645,260.844,451.065,239.344,451.065z
				 M181.456,430.403c38.417,15.146,77.323,15.155,115.739,0.018c-0.747-14.272-6.685-27.596-16.908-37.801
				c-10.965-10.952-25.531-16.985-41.017-16.985c-0.005,0-0.005,0-0.009,0C208.387,375.636,183.078,399.931,181.456,430.403z
				 M301.915,433.515h0.045H301.915z"></path>
      </g>
      <g>
        <path d="M350.536,418.636c-0.005,0-0.009,0-0.009,0c-8.057,0-15.644-3.157-21.36-8.886c-5.716-5.734-8.868-13.348-8.864-21.437
				c0-16.663,13.56-30.219,30.232-30.219c8.094,0.005,15.707,3.152,21.441,8.868c5.729,5.72,8.882,13.302,8.882,21.36l0,0l0,0
				c0,8.098-3.157,15.712-8.886,21.437C366.244,415.484,358.63,418.636,350.536,418.636z M350.536,367.37
				c-11.554,0-20.957,9.394-20.957,20.943c0,5.616,2.183,10.902,6.155,14.883c3.963,3.977,9.217,6.164,14.792,6.164h0.005
				c5.625,0,10.906-2.188,14.883-6.16c3.977-3.977,6.169-9.258,6.169-14.878l0,0c0-5.575-2.188-10.825-6.16-14.788
				C361.443,369.562,356.152,367.37,350.536,367.37z"></path>
      </g>
      <g>
        <path d="M350.582,492.503c-15.069,0-30.128-3.103-45.088-9.308c-1.735-0.72-2.862-2.41-2.862-4.285
				c0.005-26.401,21.491-47.874,47.892-47.874c0.005,0,0.005,0,0.009,0c12.809,0.005,24.852,4.991,33.919,14.045
				s14.059,21.07,14.054,33.842c0,1.875-1.128,3.564-2.862,4.285C380.696,489.405,365.637,492.503,350.582,492.503z
				 M312.029,475.818c25.59,9.846,51.488,9.846,77.078,0.014c-0.72-9.126-4.638-17.623-11.21-24.186
				c-7.315-7.306-17.034-11.332-27.365-11.332h-0.009C330.273,440.313,313.614,455.975,312.029,475.818z M393.867,478.925h0.045
				H393.867z"></path>
      </g>
      <g>
        <path d="M128.055,418.636c-0.005,0-0.007,0-0.011,0c-8.055,0-15.642-3.157-21.357-8.886c-5.718-5.734-8.868-13.348-8.866-21.437
				c0.002-16.663,13.565-30.219,30.232-30.219c8.094,0.005,15.707,3.152,21.441,8.868c5.729,5.72,8.882,13.302,8.882,21.36l0,0l0,0
				c0,8.098-3.157,15.712-8.886,21.437C143.762,415.484,136.148,418.636,128.055,418.636z M128.05,367.37
				c-11.552,0-20.952,9.394-20.954,20.943c0,5.616,2.185,10.902,6.157,14.883c3.963,3.977,9.217,6.164,14.792,6.164
				c0.002,0,0.005,0,0.007,0c5.621,0,10.904-2.188,14.878-6.16c3.977-3.977,6.169-9.258,6.169-14.878l0,0
				c0-5.575-2.188-10.825-6.16-14.788C138.959,369.562,133.671,367.37,128.05,367.37z"></path>
      </g>
      <g>
        <path d="M128.1,492.503c-15.069,0-30.131-3.103-45.093-9.308c-1.732-0.72-2.86-2.41-2.86-4.285
				c0.005-26.401,21.489-47.874,47.892-47.874c0.005,0,0.007,0,0.009,0c12.806,0.005,24.852,4.991,33.919,14.045
				c9.067,9.054,14.059,21.07,14.054,33.842c0,1.875-1.128,3.564-2.862,4.285C158.212,489.405,143.153,492.503,128.1,492.503z
				 M89.545,475.818c25.592,9.846,51.488,9.846,77.078,0.014c-0.72-9.126-4.638-17.623-11.21-24.186
				c-7.315-7.306-17.034-11.332-27.365-11.332c-0.002,0-0.007,0-0.009,0C107.789,440.313,91.13,455.975,89.545,475.818z
				 M171.383,478.925h0.045H171.383z"></path>
      </g>
      <g>
        <path d="M308.709,325.883c-0.743,0-1.486-0.177-2.165-0.534c-1.522-0.806-2.473-2.382-2.473-4.103V171.5
				c0-10.467,8.515-18.982,18.977-18.982h141.638c10.462,0,18.977,8.515,18.977,18.982v109.965c0,10.462-8.515,18.977-18.977,18.977
				H347.384l-36.057,24.634C310.539,325.611,309.624,325.883,308.709,325.883z M323.048,161.794c-5.349,0-9.702,4.353-9.702,9.706
				v140.958l29.988-20.486c0.775-0.525,1.685-0.806,2.618-0.806h118.733c5.349,0,9.702-4.353,9.702-9.702V171.5
				c0-5.354-4.353-9.706-9.702-9.706H323.048z"></path>
      </g>
      <g>
        <path d="M158.81,330.068c-0.915,0-1.83-0.272-2.618-0.811l-26.331-17.99H43.571c-8.399,0-15.234-6.835-15.234-15.232V214.79
				c0-8.402,6.835-15.236,15.234-15.236h104.645c8.397,0,15.232,6.835,15.232,15.236v110.64c0,1.721-0.951,3.297-2.473,4.103
				C160.296,329.891,159.553,330.068,158.81,330.068z M43.571,208.83c-3.286,0-5.958,2.672-5.958,5.96v81.245
				c0,3.284,2.672,5.956,5.958,5.956h87.724c0.933,0,1.846,0.281,2.616,0.811l20.261,13.841V214.79c0-3.288-2.672-5.96-5.956-5.96
				H43.571z"></path>
      </g>
      <g>
        <path d="M123.444,261.658c-2.561,0-4.638-2.074-4.638-4.638v-6.123c0-2.564,2.077-4.638,4.638-4.638
				c2.561,0,4.638,2.074,4.638,4.638v6.123C128.082,259.584,126.005,261.658,123.444,261.658z"></path>
      </g>
      <g>
        <path d="M95.893,261.658c-2.561,0-4.638-2.074-4.638-4.638v-6.123c0-2.564,2.077-4.638,4.638-4.638
				c2.561,0,4.638,2.074,4.638,4.638v6.123C100.531,259.584,98.454,261.658,95.893,261.658z"></path>
      </g>
      <g>
        <path d="M68.342,261.658c-2.561,0-4.638-2.074-4.638-4.638v-6.123c0-2.564,2.077-4.638,4.638-4.638s4.638,2.074,4.638,4.638
				v6.123C72.979,259.584,70.903,261.658,68.342,261.658z"></path>
      </g>
      <g>
        <path d="M249.281,191.687c-0.915,0-1.83-0.272-2.618-0.806l-35.799-24.458H94.396c-10.41,0-18.88-8.47-18.88-18.882V38.346
				c0-10.41,8.47-18.88,18.88-18.88h140.646c10.408,0,18.878,8.47,18.878,18.88v148.703c0,1.721-0.951,3.297-2.473,4.103
				C250.767,191.51,250.024,191.687,249.281,191.687z M94.396,28.741c-5.295,0-9.604,4.307-9.604,9.604V147.54
				c0,5.299,4.31,9.606,9.604,9.606h117.9c0.933,0,1.843,0.281,2.618,0.806l29.73,20.309V38.346c0-5.297-4.307-9.604-9.602-9.604
				H94.396z"></path>
      </g>
      <g>
        <path d="M164.739,129.654c-0.824,0-1.649-0.217-2.378-0.657c-1.612-0.96-39.409-23.86-39.409-50.469
				c0-14.448,11.776-26.206,26.251-26.206c5.684,0,11.065,1.778,15.535,5.077c4.439-3.263,9.887-5.077,15.49-5.077
				c14.475,0,26.251,11.758,26.251,26.206c0,26.609-37.751,49.504-39.359,50.469C166.388,129.437,165.563,129.654,164.739,129.654z
				 M149.204,61.599c-9.36,0-16.975,7.595-16.975,16.93c0,16.455,21.609,33.919,32.506,41.017
				c10.888-7.111,32.47-24.598,32.47-41.017c0-9.335-7.614-16.93-16.975-16.93c-4.656,0-8.963,1.83-12.134,5.15
				c-0.879,0.919-2.043,1.603-3.356,1.436c-1.259,0-2.464-0.512-3.338-1.418C158.185,63.433,153.851,61.599,149.204,61.599z"></path>
      </g>
      <g>
        <path d="M429.308,205.093h-70.882c-2.564,0-4.638-2.074-4.638-4.638s2.074-4.638,4.638-4.638h70.882
				c2.564,0,4.638,2.074,4.638,4.638S431.872,205.093,429.308,205.093z"></path>
      </g>
      <g>
        <path d="M399.053,234.483h-40.627c-2.564,0-4.638-2.074-4.638-4.638c0-2.564,2.074-4.638,4.638-4.638h40.627
				c2.564,0,4.638,2.074,4.638,4.638C403.691,232.409,401.617,234.483,399.053,234.483z"></path>
      </g>
    </g>
  </g>
</svg>
