<svg xmlns="http://www.w3.org/2000/svg" viewBox="0 0 64 64" id="VideoEditor">
  <path d="M58,4H6A3.99891,3.99891,0,0,0,2,8V45a3.999,3.999,0,0,0,4,4H27v1.51c-3.77.81995-6,2.47-6,4.49,0,3.25,5.67,5,11,5,5.33,0,11-1.75,11-5,0-2.02-2.23-3.67-6-4.49V49H58a3.99891,3.99891,0,0,0,4-4V8A3.99887,3.99887,0,0,0,58,4ZM55.99994,15H43a1.00012,1.00012,0,0,1,.00006-2H56A1.00012,1.00012,0,0,1,55.99994,15ZM43,9H54a1.00011,1.00011,0,0,1-.00006,2H43A1.00012,1.00012,0,0,1,43,9Zm.00006,8H52a1.00011,1.00011,0,0,1,0,2H43A1.00011,1.00011,0,0,1,43.00006,17ZM43,21h4a1.00011,1.00011,0,0,1,0,2H43A1.00011,1.00011,0,0,1,43,21ZM6,11A3.00883,3.00883,0,0,1,9,8H35a3.00879,3.00879,0,0,1,3,3V27a3.00883,3.00883,0,0,1-3,3H9a3.00887,3.00887,0,0,1-3-3ZM41,55c0,1.22-3.51,3-9,3-7.958-.13568-12.96167-3.47125-4.77-5.47a5.02938,5.02938,0,0,0,9.54,0C39.52,53.15,41,54.23,41,55ZM60,45a2.00587,2.00587,0,0,1-2,2H6a2.00591,2.00591,0,0,1-2-2V35H60Z" fill="#595bd4" class="color000000 svgShape"></path>
  <path d="M8 39H9v6a1 1 0 002 0V39H23v2H18a1 1 0 000 2h5v2a1 1 0 002 0V43H36v2a1 1 0 002 0V43h1a1 1 0 000-2H38V39h9v2H45a1 1 0 000 2h2v2a1 1 0 002 0V43h7a1.0001 1.0001 0 000-2H49V37a1.0001 1.0001 0 00-2 0H38a1.0001 1.0001 0 00-2 0 1.0001 1.0001 0 000 2v2H25V39a1.0001 1.0001 0 000-2 1.0001 1.0001 0 00-2 0H11a1.0001 1.0001 0 00-2 0H8A1.0001 1.0001 0 008 39zM18.99 24.75a1.939 1.939 0 001.96-.03l6.68-4.05a1.95346 1.95346 0 000-3.34l-6.68-4.05a1.91372 1.91372 0 00-1.96-.03A1.97017 1.97017 0 0018 14.96v8.08A1.97026 1.97026 0 0018.99 24.75z" fill="#595bd4" class="color000000 svgShape"></path>
</svg>
